<svg width="116" height="14" viewBox="0 0 116 14" fill="none" xmlns="http://www.w3.org/2000/svg">
<path d="M0.195312 13.9902V0.865234H6.60156L11.7188 7.42773L16.8457 0.865234H23.2422V13.9902H18.125V6.98828L12.998 13.9902H10.4395L5.3125 6.98828V13.9902H0.195312ZM29.7168 0.884766L33.5547 5.5918L37.4023 0.884766H43.4766L36.1133 9.52734V14.0098H30.9961V9.52734L23.6328 0.884766H29.7168ZM43.8672 0.875H56.5137C59.2188 0.845703 61.5137 3.12109 61.4746 5.83594C61.4746 6.82227 61.2109 7.7207 60.6836 8.52148C60.166 9.3125 59.4727 9.91797 58.6133 10.3184L61.4746 14H56.0254L53.5547 10.7969H48.9844V14H43.8672V0.875ZM55.2246 4.71289H48.9844V6.94922H55.2246C55.5371 6.94922 55.8008 6.8418 56.0156 6.62695C56.2402 6.40234 56.3477 6.13867 56.3477 5.83594C56.3477 5.21094 55.8496 4.71289 55.2246 4.71289ZM70.4199 9.50781H68.1836V13.9902H63.0664V0.865234H68.1836V5.34766H70.4199L75.2344 0.865234H81.9531L75.1465 7.42773L81.9531 13.9902H75.2344L70.4199 9.50781ZM82.6758 0.865234H87.793V9.83008H98.0371V13.9902H82.6758V0.865234ZM99.7852 14.0098V0.884766H115.146V4.24414H104.902V5.92383H115.146V8.96094H104.902V10.6406H115.146V14.0098H99.7852Z" fill="white"/>
</svg>
